<mxfile host="app.diagrams.net" modified="2024-02-01T14:49:37.046Z" agent="Mozilla/5.0 (Windows NT 10.0; Win64; x64) AppleWebKit/537.36 (KHTML, like Gecko) Chrome/120.0.0.0 Safari/537.36" version="23.0.2" etag="RCpMx06ObFhkre-t605u" type="github">
  <diagram name="PÃ¡gina-1" id="NvOkRXFZy1sR7MOj2uYC">
    <mxGraphModel>
      <root>
        <mxCell id="0" />
        <mxCell id="1" parent="0" />
      </root>
    </mxGraphModel>
  </diagram>
</mxfile>
